PathFileType	4	(X/Y/Z)	C:/Users/beibeiliu/ov580/test_trc/User2\sequence.29_training_dense_right.trc
DataRate	CameraRate	NumFrames	NumMarkers	Units	OrigDataRate	OrigDataStartFrame	OrigNumFrames
120	120	20	19	mm	120	274	365
Frame#	Time	ThumbCMC			ThumbMCP			ThumbIP			ThumbTip			IndexMCP			IndexPIP			IndexTip			MiddleMCP			MiddlePIP			MiddleTip			RingMCP			RingPIP			RingTip			PinkyMCP			PinkyPIP			PinkyTip			BackHand1			BackHand2			BackHand3	
		X0	Y0	Z0	X1	Y1	Z1	X2	Y2	Z2	X3	Y3	Z3	X4	Y4	Z4	X5	Y5	Z5	X6	Y6	Z6	X7	Y7	Z7	X8	Y8	Z8	X9	Y9	Z9	X10	Y10	Z10	X11	Y11	Z11	X12	Y12	Z12	X13	Y13	Z13	X14	Y14	Z14	X15	Y15	Z15	X16	Y16	Z16	X17	Y17	Z17	X18	Y18	Z18	
273	2.275	123.982	8.06128	71.534	96.6671	27.5877	49.5139	67.7459	38.4858	32.6727	39.6939	21.3886	30.7173	94.8778	-32.7653	6.54518	73.5079	-24.3024	-18.8264	57.152	6.03504	-10.0976	73.746	-52.016	13.4484	48.2271	-41.1426	-16.2585	35.0108	-6.96306	-13.2339	54.102	-50.9123	23.7726	33.5203	-37.1848	3.72541	32.554	-0.379249	8.55333	36.8469	-43.8314	49.627	20.1153	-26.0748	26.7797	19.944	4.90336	29.806	86.5636	-49.6669	75.3287	98.1202	-49.9852	100.639	117.116	-38.4444	69.774	
274	2.28333	126.549	3.47884	73.665	103.862	26.8223	51.4889	69.6359	35.0873	28.6377	44.6558	20.0769	33.054	94.9055	-36.5702	3.16624	72.2991	-28.0604	-17.4471	61.0967	4.91236	-14.1137	73.3541	-53.8955	9.26876	47.3236	-42.677	-14.4527	37.3283	-5.06953	-13.078	50.8976	-51.3944	22.1145	35.9281	-35.7589	3.93862	32.7688	1.68802	14.1052	37.0606	-44.3426	51.3066	18.523	-24.5849	28.0476	22.3823	5.80872	34.2296	85.609	-52.9616	73.8662	98.131	-55.2347	106.878	116.685	-41.2888	71.8184	
275	2.29167	127.26	-0.339904	71.2727	105.322	24.9786	46.2028	73.6371	27.8231	30.8776	46.6556	17.2489	30.4735	95.58	-40.6521	8.63641	74.5563	-31.3515	-19.0462	62.8036	3.81072	-13.3856	71.7574	-57.5377	13.9957	48.3245	-44.8216	-13.4406	38.7985	-9.71583	-9.37101	52.5648	-51.1993	27.4221	31.9218	-32.667	7.72729	37.5361	0.651498	15.26	36.7203	-45.7254	47.2071	23.6664	-24.1513	26.8952	27.1383	5.35629	32.6895	80.2384	-54.7002	73.1294	100.444	-55.9733	103.887	117.573	-44.2414	74.1465	
276	2.3	128.498	-1.04486	72.0299	107.25	25.0531	45.2627	75.7975	33.3446	26.5674	45.7167	18.3035	28.5757	95.451	-42.4001	8.03348	72.2996	-35.1741	-16.8213	63.5967	2.44259	-14.4964	73.5153	-55.1006	13.3918	45.8564	-43.0448	-13.0804	38.728	-7.44114	-7.25072	49.306	-48.2556	21.3621	32.5291	-26.0738	5.29023	37.7849	3.52674	16.3665	39.5326	-43.4591	45.2812	24.1927	-21.6387	25.5346	29.7755	8.48357	32.813	80.8048	-52.4644	71.9867	95.2263	-53.7765	106.53	115.592	-45.1921	72.1089	
277	2.30833	124.579	-3.177	66.7451	105.67	20.8273	44.308	74.5361	31.8037	24.8052	49.3683	22.1879	30.3025	90.5141	-43.8231	5.70775	72.3384	-34.0804	-18.898	61.0314	2.82705	-11.7598	68.4586	-55.2391	13.4774	45.2048	-42.516	-12.3702	41.0118	0.144463	-3.10117	48.373	-45.9193	21.2723	29.9073	-27.1344	6.85766	42.3672	8.7299	16.6155	36.8698	-40.5845	48.4696	19.9396	-17.7417	27.4318	35.2055	9.27045	34.6021	78.1893	-52.0281	73.6678	95.8373	-53.7457	105.336	118.48	-45.8382	70.0437	
278	2.31667	128.451	-3.04855	65.6428	105.786	18.9558	42.8526	75.7923	30.3213	25.0579	47.2696	17.3191	30.1627	91.9509	-45.2224	4.93868	69.4881	-33.6828	-18.142	60.5773	-2.45283	-12.1096	64.8021	-55.6734	13.5744	45.5371	-41.5965	-12.4804	42.9869	-1.41398	-5.9994	48.5013	-46.7326	21.5592	31.1992	-26.2302	6.34173	40.4781	6.4557	18.795	37.3767	-41.5849	49.8646	19.2868	-20.948	29.0482	34.6278	11.8687	36.5661	78.395	-52.7126	73.9883	93.9644	-55.8989	107.167	118.392	-46.6567	70.0619	
279	2.325	128.529	-3.74858	67.6412	107.961	21.1977	43.275	78.7124	32.5826	23.7956	50.0187	19.4229	29.1635	88.0602	-45.9299	7.51643	67.3261	-34.346	-16.0437	62.2453	-2.23341	-15.3602	65.3718	-54.8945	14.0672	42.2484	-37.6963	-11.6558	42.6394	-1.21888	-4.12593	48.5503	-47.5713	23.6662	30.3918	-26.6313	6.88051	38.3811	5.15096	18.6689	34.0185	-41.289	51.4308	19.3539	-19.694	29.7038	35.1892	10.8062	35.1852	77.9034	-53.6676	79.7128	96.2841	-54.9133	104.067	116.741	-48.5356	72.1909	
280	2.33333	130.256	-5.38185	69.4775	110.065	16.7811	45.1195	75.7951	23.3178	24.5969	48.4529	11.4903	29.5634	88.58	-48.1618	9.46475	68.0688	-36.5478	-17.3843	63.01	-2.31079	-11.6697	64.1318	-58.812	10.5142	42.7893	-41.728	-8.992	44.8486	-0.7174	1.72743	48.5658	-49.8237	21.9061	32.6636	-30.8893	6.6684	39.6176	3.11576	23.6527	37.909	-45.4098	50.8529	19.4847	-22.275	29.4012	35.6417	6.93005	36.7319	79.2171	-57.4921	74.2365	95.2264	-58.4133	104.574	116.757	-49.0656	69.8057	
281	2.34167	128.726	-7.62372	67.9733	108.464	14.8155	41.7276	77.154	20.2537	24.6926	49.3239	10.054	28.219	89.8296	-48.7406	9.66012	70.2285	-39.1306	-17.6022	59.9808	-7.27167	-10.9847	65.4779	-59.0728	13.7775	44.4397	-37.9986	-12.8541	44.3216	-2.14142	3.84058	47.1736	-51.4612	28.1202	31.1554	-28.9715	7.70862	43.4225	2.24606	24.32	36.878	-46.1157	50.1146	20.1552	-24.8565	29.1381	31.1365	8.25308	38.9194	79.3889	-56.4816	75.3315	96.1052	-57.6208	103.908	117.681	-49.729	70.8458	
282	2.35	129.099	-7.41299	66.2883	111.403	17.0884	39.8914	81.5658	24.3683	23.5476	52.8764	12.3087	27.8942	90.2021	-49.6258	4.42133	66.6923	-41.2981	-15.5146	58.7928	-6.67697	-8.51287	61.613	-59.1749	11.4498	41.7106	-36.8464	-10.3709	47.0781	-0.544088	5.18973	44.9988	-51.2954	22.7146	30.3509	-28.8964	8.86732	42.7588	1.15288	23.7134	35.9277	-47.2684	50.8258	18.4859	-23.761	28.3306	32.3359	5.59301	34.4852	77.8264	-59.7153	77.1298	97.6093	-57.5049	105.949	117.514	-50.987	69.3573	
283	2.35833	128.691	-8.64538	66.9577	111.578	14.4136	40.0017	82.4068	22.5483	23.2511	56.588	10.7812	28.0418	92.1909	-50.6738	7.89209	66.0051	-40.9325	-16.4555	60.1321	-6.48934	-10.1618	65.1719	-57.793	12.4737	41.3372	-36.8584	-8.06713	46.4152	-1.07382	8.98684	44.0082	-53.6608	27.1029	28.8137	-29.325	10.1032	39.8439	-0.714408	26.6705	34.045	-48.8937	52.8234	15.6524	-27.6367	31.5345	29.06	0.810086	35.5988	78.6005	-59.1388	76.2183	93.9939	-59.7608	107.12	117.637	-51.6075	71.4372	
284	2.36667	128.269	-9.48808	69.0043	114.717	14.8463	40.0343	89.7051	25.1402	21.6163	56.1641	12.4243	22.6734	92.7682	-50.0014	8.41294	68.6354	-43.247	-17.4847	60.5609	-7.63192	-11.0476	64.0536	-56.79	11.0769	41.5938	-32.876	-8.63885	49.7289	1.76216	10.6929	44.5652	-53.8111	24.5593	28.1231	-31.4753	12.0007	43.1871	-0.0772471	29.849	35.8527	-48.3462	47.3181	21.2173	-25.0537	28.5694	29.9478	1.05888	36.852	76.8325	-60.1614	76.9634	96.9814	-60.8164	107.755	115.415	-52.953	74.3737	
285	2.375	128.288	-11.0925	67.0562	117.128	11.4943	41.6476	93.8568	24.5914	19.6003	63.9763	14.8884	20.8905	91.6598	-50.0432	7.71013	66.1605	-42.7833	-13.6221	60.034	-7.98083	-9.03511	65.878	-53.8022	11.1759	42.9964	-27.8597	-6.52648	49.8187	2.95083	16.2694	42.9481	-50.5416	24.8342	29.3573	-28.2186	11.9399	42.5764	0.638202	35.4	32.4647	-48.2001	47.9145	20.2061	-21.8334	30.2986	28.9862	4.72938	39.253	82.0136	-61.4148	76.0619	95.5031	-61.0164	102.668	118.334	-50.8626	73.7987	
286	2.38333	127.877	-11.3337	67.501	120.815	11.5287	40.2125	98.8262	25.472	16.5484	67.7095	17.9099	15.072	86.5418	-48.8965	9.28293	64.8741	-40.1678	-12.8685	58.8631	-5.06553	-4.41351	58.6307	-51.1075	10.0029	38.5494	-25.0269	-1.24233	55.4353	6.10776	22.1443	41.3321	-47.7134	24.2396	29.7579	-19.386	16.0354	46.5163	0.691388	37.2063	32.4511	-46.6518	51.2588	19.3811	-20.0378	34.106	34.0178	8.67165	47.1823	78.7743	-61.0231	77.6905	96.2003	-60.7133	105.557	118.662	-51.5229	70.9389	
287	2.39167	132.13	-10.3095	69.403	123.507	11.2283	41.5508	104.469	24.5774	15.5311	73.8487	18.8738	12.7511	84.2214	-44.637	8.14891	62.2549	-29.2352	-13.3505	60.1991	3.98697	7.32506	61.6865	-45.6375	11.3232	38.9647	-17.9565	0.709656	59.1614	8.13371	30.1053	38.0671	-43.3286	29.1557	29.0876	-11.9003	21.6408	50.5035	2.67539	50.0796	28.353	-42.2631	50.2944	19.799	-9.74521	40.2875	37.8932	7.04435	52.3486	76.399	-62.8328	77.8329	92.6841	-60.9907	103.204	117.276	-48.1264	70.7639	
288	2.4	134.078	-9.21881	70.8605	126.924	10.932	39.0398	104.874	23.7821	13.6553	74.903	21.1933	6.73236	78.9198	-38.1497	7.34613	57.1357	-19.1637	-6.63078	64.1472	9.57427	19.5481	55.8458	-40.5166	10.409	38.4003	-9.27282	9.31668	60.1043	8.58885	36.5279	41.4991	-38.1789	29.796	29.0849	-7.95479	27.7012	56.5119	1.95071	52.5601	27.4965	-38.1695	50.6885	19.3161	-7.77717	46.7928	48.9006	5.18805	64.6698	79.6627	-61.5331	78.1847	98.0223	-61.5411	100.783	114.35	-48.7734	73.6818	
289	2.40833	131.234	-8.96294	70.8694	127.41	12.2286	42.8469	109.998	27.8352	15.3313	79.9278	24.6417	8.89476	79.8054	-29.831	6.15092	56.5402	-7.14769	0.158285	67.5573	14.5977	25.4879	58.2386	-33.2658	12.8447	38.6535	-3.434	14.6069	61.6889	8.39622	47.5291	37.4281	-29.8233	30.5341	30.2697	0.334693	35.8412	56.4712	2.22091	61.3439	25.7335	-31.7703	51.8155	28.4577	-0.0660412	52.1206	50.3927	4.18509	71.5966	75.3483	-59.4027	79.8761	94.4784	-60.8529	106.57	115.656	-48.6352	71.4236	
290	2.41667	131.392	-7.10692	71.2795	123.93	13.0456	42.0779	106.063	25.628	14.2568	77.3665	23.2075	5.36843	77.0063	-22.2048	4.58009	56.6513	3.74489	6.69093	69.3177	15.664	34.8722	53.5124	-26.0567	15.4661	42.3378	7.16699	22.4865	68.6702	9.05303	54.1627	39.2884	-24.4936	33.9054	34.8325	6.15616	43.0766	63.3993	2.52333	65.0061	27.0835	-28.7547	57.6729	34.7234	5.32221	58.6506	58.0379	1.10358	82.2081	73.5802	-58.4236	78.494	93.3844	-59.2372	105.835	113.79	-46.8275	71.4516	
291	2.425	128.812	-8.82729	71.416	127.307	11.9478	41.7876	107.716	22.3928	17.5338	78.3591	21.6876	5.3005	76.7595	-21.506	8.7774	59.3383	4.24054	10.1287	77.7253	13.7853	41.3633	54.7624	-27.0454	21.4558	45.054	8.11587	28.0318	71.9342	8.85638	57.6386	37.8627	-20.1661	36.2989	36.8932	6.45122	46.111	68.1316	-0.769304	67.9207	29.4301	-25.7484	59.9593	37.5501	6.65643	67.6975	62.7508	-3.33117	87.4792	76.3757	-59.5876	77.7275	95.2994	-57.3456	103.794	115.622	-48.1696	76.3552	
292	2.43333	131.125	-7.47755	73.9736	129.869	12.2363	46.0161	109.084	23.9207	13.8299	79.4967	20.831	5.41474	78.1758	-22.2892	11.5244	60.0769	5.33161	11.9216	79.4006	12.2952	42.3189	54.4513	-24.4382	21.6283	44.9918	7.42566	29.5723	72.5712	4.74042	63.1057	36.8394	-21.8916	40.3223	41.7482	7.81247	52.136	65.3271	-1.14816	72.6538	32.6718	-26.821	60.2313	40.5705	6.7515	71.164	66.5569	-5.19173	87.309	75.0869	-60.575	76.8133	96.2797	-59.855	109.741	115.947	-47.1417	75.263	
